<?xml version="1.0" encoding="utf-8"?>
<!-- Generator: Adobe Illustrator 16.0.4, SVG Export Plug-In . SVG Version: 6.00 Build 0)  -->
<!DOCTYPE svg PUBLIC "-//W3C//DTD SVG 1.1//EN" "http://www.w3.org/Graphics/SVG/1.1/DTD/svg11.dtd">
<svg version="1.1" id="Ebene_1" xmlns="http://www.w3.org/2000/svg" xmlns:xlink="http://www.w3.org/1999/xlink" x="0px" y="0px"
	 width="100px" height="40px" viewBox="39 16 100 40" enable-background="new 39 16 100 40" xml:space="preserve">
<g>
	<g id="ARC_4_">
		
			<path fill="#009FE2" stroke="#009FE2" stroke-width="0.4252" stroke-linecap="round" stroke-linejoin="round" stroke-miterlimit="10" d="
			M116.233,30.013h-7.027v-2.703c0-1.863,0.741-3.65,2.059-4.969c2.744-2.744,7.193-2.744,9.938,0c0.423,0.423,1.106,0.423,1.528,0
			c0.424-0.422,0.424-1.106,0-1.528c-3.588-3.588-9.406-3.588-12.995,0c-1.724,1.723-2.691,4.061-2.691,6.497v17.298
			c0,0.596,0.484,1.08,1.081,1.08s1.081-0.484,1.081-1.08V32.176h7.027c0.597,0,1.081-0.484,1.081-1.082
			C117.315,30.498,116.832,30.013,116.233,30.013z"/>
	</g>
	<g id="ARC_6_">
		<g id="XMLID_3_">
			<g>
				<path fill="#009FE2" d="M101.097,17.58V36.5c0,2.708-1.195,5.281-3.266,7.026c-3.881,3.271-9.676,2.773-12.951-1.107
					c-3.271-3.881-2.773-9.675,1.108-12.946c3.881-3.27,9.676-2.772,12.947,1.108V17.58c0-0.595,0.485-1.081,1.079-1.081
					C100.615,16.5,101.097,16.986,101.097,17.58z M98.935,36.5c0-3.881-3.146-7.027-7.027-7.027c-3.876,0-7.027,3.146-7.027,7.027
					c0,3.881,3.151,7.026,7.027,7.026C95.788,43.526,98.935,40.381,98.935,36.5z"/>
			</g>
			<g>
				
					<path fill="none" stroke="#009FE2" stroke-width="0.4252" stroke-linecap="round" stroke-linejoin="round" stroke-miterlimit="10" d="
					M98.935,36.5c0-3.881-3.146-7.027-7.027-7.027c-3.876,0-7.027,3.146-7.027,7.027c0,3.881,3.151,7.026,7.027,7.026
					C95.788,43.526,98.935,40.381,98.935,36.5z"/>
				
					<line fill="none" stroke="#009FE2" stroke-width="0.4252" stroke-linecap="round" stroke-linejoin="round" stroke-miterlimit="10" x1="98.935" y1="17.58" x2="98.935" y2="30.58"/>
				
					<line fill="none" stroke="#009FE2" stroke-width="0.4252" stroke-linecap="round" stroke-linejoin="round" stroke-miterlimit="10" x1="101.097" y1="36.5" x2="101.097" y2="17.58"/>
				
					<path fill="none" stroke="#009FE2" stroke-width="0.4252" stroke-linecap="round" stroke-linejoin="round" stroke-miterlimit="10" d="
					M101.097,17.58c0-0.595-0.481-1.081-1.081-1.081c-0.596,0-1.081,0.486-1.081,1.081"/>
				
					<path fill="none" stroke="#009FE2" stroke-width="0.4252" stroke-linecap="round" stroke-linejoin="round" stroke-miterlimit="10" d="
					M98.935,30.58c-3.271-3.88-9.065-4.378-12.947-1.108s-4.378,9.065-1.108,12.946c3.275,3.882,9.07,4.379,12.951,1.108
					c2.07-1.746,3.266-4.319,3.266-7.027"/>
			</g>
		</g>
	</g>
	<g id="ARC_11_">
		<g id="XMLID_2_">
			<g>
				<path fill="#009FE2" d="M78.923,33.359c0.206,0.557-0.086,1.178-0.648,1.384l-10.665,3.88c-0.562,0.206-1.178-0.086-1.384-0.643
					c-0.206-0.562,0.081-1.184,0.643-1.39l9.573-3.481c-1.871-3.4-6.146-4.637-9.546-2.767c-3.399,1.875-4.638,6.146-2.762,9.545
					c1.871,3.399,6.146,4.638,9.546,2.768c1.119-0.621,2.054-1.535,2.692-2.643c0.303-0.519,0.962-0.692,1.481-0.395
					c0.513,0.297,0.692,0.957,0.394,1.476c-1.081,1.869-2.784,3.302-4.816,4.037c-4.768,1.741-10.043-0.719-11.778-5.491
					c-1.735-4.768,0.725-10.039,5.492-11.773C71.913,26.126,77.188,28.586,78.923,33.359z"/>
			</g>
			<g>
				
					<line fill="none" stroke="#009FE2" stroke-width="0.4252" stroke-linecap="round" stroke-linejoin="round" stroke-miterlimit="10" x1="76.441" y1="33.111" x2="66.869" y2="36.591"/>
				
					<line fill="none" stroke="#009FE2" stroke-width="0.4252" stroke-linecap="round" stroke-linejoin="round" stroke-miterlimit="10" x1="67.61" y1="38.624" x2="78.275" y2="34.743"/>
				
					<path fill="none" stroke="#009FE2" stroke-width="0.4252" stroke-linecap="round" stroke-linejoin="round" stroke-miterlimit="10" d="
					M76.441,33.111c-1.87-3.4-6.145-4.638-9.545-2.768c-3.399,1.875-4.638,6.146-2.762,9.545c1.87,3.4,6.146,4.638,9.546,2.768
					c1.119-0.621,2.054-1.535,2.692-2.643"/>
				
					<path fill="none" stroke="#009FE2" stroke-width="0.4252" stroke-linecap="round" stroke-linejoin="round" stroke-miterlimit="10" d="
					M78.247,41.095c0.297-0.52,0.119-1.179-0.394-1.476c-0.519-0.297-1.179-0.124-1.481,0.395"/>
				
					<path fill="none" stroke="#009FE2" stroke-width="0.4252" stroke-linecap="round" stroke-linejoin="round" stroke-miterlimit="10" d="
					M78.923,33.359c-1.735-4.773-7.011-7.233-11.779-5.492c-4.767,1.735-7.227,7.005-5.492,11.773
					c1.736,4.772,7.011,7.232,11.778,5.491c2.032-0.734,3.735-2.167,4.817-4.037"/>
				
					<path fill="none" stroke="#009FE2" stroke-width="0.4252" stroke-linecap="round" stroke-linejoin="round" stroke-miterlimit="10" d="
					M78.275,34.743c0.562-0.206,0.854-0.827,0.648-1.384"/>
				
					<path fill="none" stroke="#009FE2" stroke-width="0.4252" stroke-linecap="round" stroke-linejoin="round" stroke-miterlimit="10" d="
					M66.869,36.591c-0.562,0.206-0.849,0.828-0.643,1.39c0.206,0.557,0.821,0.849,1.384,0.644"/>
			</g>
		</g>
	</g>
	<g id="ARC_17_">
		
			<path fill="#009FE2" stroke="#009FE2" stroke-width="0.4252" stroke-linecap="round" stroke-linejoin="round" stroke-miterlimit="10" d="
			M130.828,55.419v-9.808c4.394-0.545,7.692-4.278,7.692-8.706v-5.811c0-0.597-0.484-1.081-1.081-1.081s-1.08,0.484-1.08,1.081
			v5.811c0,3.651-2.961,6.611-6.611,6.611c-3.652,0-6.612-2.96-6.612-6.611v-5.811c0-0.597-0.483-1.081-1.08-1.081
			s-1.081,0.484-1.081,1.081v5.811c0,4.428,3.299,8.161,7.692,8.706v9.808c0,0.597,0.484,1.081,1.081,1.081
			C130.344,56.5,130.828,56.016,130.828,55.419z"/>
	</g>
	<g id="ARC_21_">
		<g id="XMLID_1_">
			<g>
				<path fill="#009FE2" d="M57.539,27.629c0.422,0.422,0.422,1.103,0,1.524L43.167,43.526h13.605c0.6,0,1.081,0.487,1.081,1.081
					s-0.481,1.081-1.081,1.081H40.556c-0.287,0-0.557-0.113-0.762-0.318c-0.422-0.422-0.422-1.104,0-1.525l14.373-14.373H40.556
					c-0.595,0-1.081-0.486-1.081-1.081s0.486-1.081,1.081-1.081h16.216C57.064,27.311,57.334,27.424,57.539,27.629z"/>
			</g>
			<g>
				
					<path fill="none" stroke="#009FE2" stroke-width="0.4252" stroke-linecap="round" stroke-linejoin="round" stroke-miterlimit="10" d="
					M56.772,43.526H43.167l14.373-14.372c0.422-0.422,0.422-1.103,0-1.524c-0.206-0.206-0.475-0.318-0.767-0.318H40.556
					c-0.595,0-1.081,0.486-1.081,1.081s0.486,1.081,1.081,1.081h13.611L39.793,43.845c-0.422,0.423-0.422,1.104,0,1.525
					c0.206,0.205,0.476,0.318,0.762,0.318h16.216c0.6,0,1.081-0.487,1.081-1.081S57.372,43.526,56.772,43.526z"/>
			</g>
		</g>
	</g>
</g>
</svg>
