<?xml version="1.0" encoding="utf-8"?>
<!-- Generator: Adobe Illustrator 16.0.4, SVG Export Plug-In . SVG Version: 6.00 Build 0)  -->
<!DOCTYPE svg PUBLIC "-//W3C//DTD SVG 1.1//EN" "http://www.w3.org/Graphics/SVG/1.1/DTD/svg11.dtd">
<svg version="1.1" id="Ebene_2" xmlns="http://www.w3.org/2000/svg" xmlns:xlink="http://www.w3.org/1999/xlink" x="0px" y="0px"
	 width="360px" height="85px" viewBox="-66.614 -25 360 85" enable-background="new -66.614 -25 360 85" xml:space="preserve">
<g>
	<g id="CIRCLE_1_">
		<g id="XMLID_5_">
			<g>
				<path fill="#009FE2" d="M201.434,7.348c13.906,0,25.183,11.273,25.183,25.203c0,13.902-11.276,25.184-25.183,25.184
					c-13.912,0-25.185-11.281-25.185-25.184C176.247,18.621,187.522,7.348,201.434,7.348z M220.69,32.551
					c0-10.664-8.621-19.282-19.258-19.282c-10.636,0-19.261,8.618-19.261,19.282c0,10.629,8.623,19.254,19.261,19.254
					C212.069,51.805,220.69,43.18,220.69,32.551z"/>
			</g>
		</g>
	</g>
	<g id="ARC_3_">
		<g id="XMLID_6_">
			<g>
				<path fill="#009FE2" d="M285.871,32.551v22.223c0,1.635-1.322,2.961-2.963,2.961c-1.634,0-2.961-1.326-2.961-2.961V32.551
					c0-10.664-8.618-19.282-19.261-19.282c-10.633,0-19.258,8.618-19.258,19.282v22.223c0,1.635-1.322,2.961-2.958,2.961
					c-1.641,0-2.963-1.326-2.963-2.961V32.551c0-13.93,11.272-25.203,25.179-25.203C274.599,7.348,285.871,18.621,285.871,32.551z"
					/>
			</g>
		</g>
	</g>
	<g id="ARC_5_">
		<g id="XMLID_4_">
			<g>
				<path fill="#009FE2" d="M108.105-19.321v51.872c0,7.422-3.277,14.467-8.958,19.254c-10.633,8.963-26.521,7.609-35.484-3.029
					c-8.963-10.631-7.609-26.542,3.027-35.505c10.639-8.958,26.526-7.604,35.49,3.03v-35.622c0-1.635,1.327-2.964,2.964-2.964
					C106.778-22.285,108.105-20.958,108.105-19.321z M102.178,32.551c0-10.664-8.623-19.282-19.258-19.282
					c-10.636,0-19.259,8.618-19.259,19.282c0,10.629,8.623,19.254,19.259,19.254C93.553,51.805,102.178,43.18,102.178,32.551z"/>
			</g>
		</g>
	</g>
	<g id="ARC_10_">
		<path fill="#009FE2" d="M40.53,23.234l-26.233,9.568c-1.539,0.559-2.331,2.258-1.773,3.799c0.563,1.535,2.261,2.326,3.8,1.768
			l29.234-10.656c1.536-0.562,2.33-2.263,1.77-3.801C42.571,10.842,28.121,4.103,15.049,8.86C1.979,13.616-4.76,28.074-0.002,41.158
			c4.756,13.068,19.206,19.807,32.278,15.051c5.562-2.023,10.234-5.947,13.198-11.074c0.817-1.416,0.334-3.229-1.085-4.049
			c-1.419-0.816-3.229-0.33-4.047,1.086c-1.757,3.041-4.312,5.547-7.388,7.238c-9.314,5.133-21.029,1.744-26.161-7.576
			c-5.132-9.314-1.74-21.043,7.577-26.178C23.684,10.527,35.4,13.919,40.53,23.234z"/>
	</g>
	<g id="ARC_14_">
		<path fill="#009FE2" d="M157.95,21.48c-6.099-8.713-18.11-10.83-26.82-4.729c-8.714,6.1-10.831,18.128-4.731,26.841
			c6.104,8.711,18.11,10.832,26.824,4.729c1.84-1.289,3.439-2.891,4.728-4.729c0.938-1.34,2.788-1.668,4.129-0.729
			c1.341,0.943,1.665,2.787,0.727,4.125c-1.687,2.41-3.779,4.498-6.185,6.188c-11.396,7.979-27.098,5.209-35.075-6.188
			c-7.978-11.393-5.211-27.113,6.185-35.091c11.393-7.978,27.098-5.211,35.075,6.184c0.938,1.342,0.614,3.187-0.727,4.128
			C160.74,23.147,158.889,22.82,157.95,21.48z"/>
	</g>
	<g id="ARC_18_">
		<path fill="#009FE2" d="M-13.373,51.805h-37.29L-11.279,12.4c1.159-1.158,1.159-3.032,0-4.19c-0.557-0.558-1.308-0.87-2.096-0.87
			h-44.442c-1.634,0-2.959,1.329-2.959,2.964s1.326,2.962,2.959,2.962h37.292l-39.384,39.406c-1.159,1.158-1.159,3.029,0,4.191
			c0.553,0.555,1.308,0.867,2.094,0.867h44.444c1.636,0,2.962-1.326,2.962-2.963S-11.737,51.805-13.373,51.805z"/>
	</g>
</g>
</svg>
