<?xml version="1.0" encoding="utf-8"?>
<!-- Generator: Adobe Illustrator 16.0.4, SVG Export Plug-In . SVG Version: 6.00 Build 0)  -->
<!DOCTYPE svg PUBLIC "-//W3C//DTD SVG 1.1//EN" "http://www.w3.org/Graphics/SVG/1.1/DTD/svg11.dtd">
<svg version="1.1" id="Ebene_2" xmlns="http://www.w3.org/2000/svg" xmlns:xlink="http://www.w3.org/1999/xlink" x="0px" y="0px"
	 width="226.772px" height="72px" viewBox="0.006 0 226.772 72" enable-background="new 0.006 0 226.772 72" xml:space="preserve">
<g>
	<g id="CIRCLE_1_">
		<g id="XMLID_5_">
			<g>
				<path fill="#009FE2" d="M168.214,20.732c8.709,0,15.772,7.06,15.772,15.772c0,8.707-7.063,15.772-15.772,15.772
					c-8.713,0-15.772-7.065-15.772-15.772C152.441,27.792,159.501,20.732,168.214,20.732z M180.274,36.504
					c0-6.667-5.4-12.064-12.061-12.064c-6.661,0-12.062,5.397-12.062,12.064c0,6.657,5.4,12.058,12.062,12.058
					C174.874,48.562,180.274,43.161,180.274,36.504z"/>
			</g>
			<g>
			</g>
		</g>
	</g>
	<g id="ARC_3_">
		<g id="XMLID_6_">
			<g>
				<path fill="#009FE2" d="M221.095,36.504v13.917c0,1.024-0.828,1.855-1.855,1.855c-1.024,0-1.855-0.831-1.855-1.855V36.504
					c0-6.667-5.397-12.064-12.062-12.064c-6.66,0-12.061,5.397-12.061,12.064v13.917c0,1.024-0.828,1.855-1.853,1.855
					c-1.027,0-1.855-0.831-1.855-1.855V36.504c0-8.712,7.06-15.772,15.769-15.772C214.035,20.732,221.095,27.792,221.095,36.504z"/>
			</g>
			<g>
			</g>
		</g>
	</g>
	<g id="ARC_5_">
		<g id="XMLID_4_">
			<g>
				<path fill="#009FE2" d="M109.765,4.03v32.474c0,4.648-2.053,9.06-5.61,12.058c-6.66,5.613-16.61,4.766-22.223-1.897
					c-5.613-6.657-4.766-16.611,1.895-22.224c6.664-5.61,16.613-4.762,22.227,1.898V4.03c0-1.024,0.831-1.856,1.856-1.856
					C108.934,2.174,109.765,3.005,109.765,4.03z M106.053,36.504c0-6.667-5.4-12.064-12.061-12.064
					c-6.661,0-12.061,5.397-12.061,12.064c0,6.657,5.4,12.058,12.061,12.058C100.652,48.562,106.053,43.161,106.053,36.504z"/>
			</g>
			<g>
			</g>
		</g>
	</g>
	<g id="ARC_10_">
		<path fill="#009FE2" d="M67.445,30.681l-16.429,5.981c-0.964,0.35-1.46,1.414-1.11,2.379c0.352,0.961,1.416,1.457,2.379,1.107
			l18.309-6.664c0.962-0.351,1.459-1.415,1.108-2.378c-2.979-8.186-12.029-12.406-20.215-9.427s-12.406,12.03-9.426,20.216
			c2.978,8.184,12.028,12.404,20.215,9.426c3.483-1.268,6.409-3.725,8.265-6.936c0.512-0.887,0.209-2.021-0.679-2.535
			c-0.889-0.512-2.023-0.207-2.535,0.68c-1.1,1.904-2.7,3.473-4.627,4.533c-5.833,3.215-13.169,1.092-16.383-4.744
			c-3.214-5.834-1.09-13.168,4.745-16.384C56.895,22.723,64.232,24.847,67.445,30.681z"/>
	</g>
	<g id="ARC_14_">
		<path fill="#009FE2" d="M140.982,29.583c-3.82-5.457-11.342-6.783-16.797-2.962c-5.457,3.82-6.783,11.341-2.963,16.798
			c3.822,5.455,11.342,6.783,16.799,2.961c1.152-0.807,2.154-1.809,2.961-2.961c0.588-0.84,1.746-1.045,2.586-0.457
			c0.84,0.59,1.043,1.746,0.455,2.584c-1.057,1.508-2.367,2.818-3.873,3.875c-7.137,4.996-16.971,3.262-21.967-3.875
			c-4.996-7.135-3.264-16.969,3.873-21.965c7.135-4.996,16.971-3.263,21.967,3.873c0.588,0.84,0.385,1.996-0.455,2.585
			C142.729,30.627,141.57,30.422,140.982,29.583z"/>
	</g>
	<g id="ARC_18_">
		<path fill="#009FE2" d="M33.687,48.562H10.333l24.665-24.666c0.726-0.725,0.726-1.899,0-2.624
			c-0.348-0.349-0.819-0.545-1.312-0.545H5.853c-1.024,0-1.854,0.832-1.854,1.856s0.83,1.855,1.854,1.855h23.354L4.542,49.105
			c-0.725,0.725-0.725,1.898,0,2.625c0.347,0.348,0.82,0.543,1.312,0.543h27.834c1.024,0,1.855-0.83,1.855-1.855
			S34.711,48.562,33.687,48.562z"/>
	</g>
</g>
</svg>
