<?xml version="1.0" encoding="utf-8"?>
<!-- Generator: Adobe Illustrator 16.0.4, SVG Export Plug-In . SVG Version: 6.00 Build 0)  -->
<!DOCTYPE svg PUBLIC "-//W3C//DTD SVG 1.1//EN" "http://www.w3.org/Graphics/SVG/1.1/DTD/svg11.dtd">
<svg version="1.1" id="Ebene_1" xmlns="http://www.w3.org/2000/svg" xmlns:xlink="http://www.w3.org/1999/xlink" x="0px" y="0px"
	 width="178px" height="72px" viewBox="0 0 178 72" enable-background="new 0 0 178 72" xml:space="preserve">
<g>
	<g id="ARC_4_">
		
			<path fill="#009FE2" stroke="#009FE2" stroke-width="0.4252" stroke-linecap="round" stroke-linejoin="round" stroke-miterlimit="10" d="
			M135.745,25.367h-12.061v-4.639c0-3.198,1.271-6.266,3.532-8.528c4.71-4.709,12.347-4.709,17.057,0c0.726,0.725,1.9,0.725,2.624,0
			c0.726-0.725,0.726-1.899,0-2.624c-6.159-6.159-16.145-6.159-22.305,0c-2.958,2.958-4.619,6.97-4.619,11.152v29.689
			c0,1.023,0.83,1.854,1.854,1.854c1.025,0,1.856-0.831,1.856-1.854V29.078h12.061c1.025,0,1.856-0.831,1.856-1.856
			C137.602,26.198,136.771,25.367,135.745,25.367z"/>
	</g>
	<g id="ARC_6_">
		<g id="XMLID_3_">
			<g>
				<path fill="#009FE2" d="M109.763,4.027V36.5c0,4.648-2.05,9.064-5.604,12.061c-6.661,5.613-16.607,4.76-22.229-1.902
					c-5.613-6.661-4.76-16.606,1.902-22.22c6.661-5.613,16.607-4.759,22.22,1.902V4.027c0-1.021,0.835-1.855,1.855-1.855
					C108.938,2.172,109.763,3.007,109.763,4.027z M106.052,36.5c0-6.661-5.399-12.061-12.061-12.061
					c-6.652,0-12.061,5.4-12.061,12.061c0,6.662,5.409,12.061,12.061,12.061C100.652,48.561,106.052,43.161,106.052,36.5z"/>
			</g>
			<g>
				
					<path fill="none" stroke="#009FE2" stroke-width="0.4252" stroke-linecap="round" stroke-linejoin="round" stroke-miterlimit="10" d="
					M106.052,36.5c0-6.661-5.399-12.061-12.061-12.061c-6.652,0-12.061,5.4-12.061,12.061c0,6.662,5.409,12.061,12.061,12.061
					C100.652,48.561,106.052,43.161,106.052,36.5z"/>
				
					<line fill="none" stroke="#009FE2" stroke-width="0.4252" stroke-linecap="round" stroke-linejoin="round" stroke-miterlimit="10" x1="106.052" y1="4.027" x2="106.052" y2="26.34"/>
				
					<line fill="none" stroke="#009FE2" stroke-width="0.4252" stroke-linecap="round" stroke-linejoin="round" stroke-miterlimit="10" x1="109.763" y1="36.5" x2="109.763" y2="4.027"/>
				
					<path fill="none" stroke="#009FE2" stroke-width="0.4252" stroke-linecap="round" stroke-linejoin="round" stroke-miterlimit="10" d="
					M109.763,4.027c0-1.021-0.825-1.855-1.855-1.855c-1.021,0-1.855,0.835-1.855,1.855"/>
				
					<path fill="none" stroke="#009FE2" stroke-width="0.4252" stroke-linecap="round" stroke-linejoin="round" stroke-miterlimit="10" d="
					M106.052,26.34c-5.612-6.661-15.559-7.515-22.22-1.902c-6.662,5.613-7.515,15.559-1.902,22.22
					c5.622,6.662,15.568,7.516,22.229,1.902c3.554-2.997,5.604-7.413,5.604-12.061"/>
			</g>
		</g>
	</g>
	<g id="ARC_11_">
		<g id="XMLID_2_">
			<g>
				<path fill="#009FE2" d="M71.706,31.109c0.353,0.956-0.148,2.022-1.113,2.375l-18.305,6.661
					c-0.965,0.353-2.022-0.148-2.375-1.104c-0.353-0.965,0.139-2.032,1.104-2.385l16.431-5.975c-3.21-5.836-10.548-7.96-16.384-4.75
					c-5.835,3.219-7.96,10.549-4.741,16.384c3.21,5.836,10.549,7.961,16.384,4.75c1.92-1.066,3.525-2.635,4.62-4.536
					c0.52-0.891,1.652-1.188,2.542-0.678c0.881,0.511,1.188,1.643,0.677,2.533c-1.855,3.21-4.778,5.669-8.267,6.931
					c-8.183,2.987-17.238-1.234-20.216-9.427c-2.978-8.183,1.243-17.229,9.426-20.207C59.673,18.696,68.728,22.917,71.706,31.109z"
					/>
			</g>
			<g>
				
					<line fill="none" stroke="#009FE2" stroke-width="0.4252" stroke-linecap="round" stroke-linejoin="round" stroke-miterlimit="10" x1="67.447" y1="30.683" x2="51.017" y2="36.657"/>
				
					<line fill="none" stroke="#009FE2" stroke-width="0.4252" stroke-linecap="round" stroke-linejoin="round" stroke-miterlimit="10" x1="52.288" y1="40.146" x2="70.593" y2="33.484"/>
				
					<path fill="none" stroke="#009FE2" stroke-width="0.4252" stroke-linecap="round" stroke-linejoin="round" stroke-miterlimit="10" d="
					M67.447,30.683c-3.21-5.836-10.548-7.96-16.384-4.75c-5.835,3.219-7.96,10.549-4.741,16.384
					c3.21,5.836,10.549,7.961,16.384,4.75c1.92-1.066,3.525-2.635,4.62-4.536"/>
				
					<path fill="none" stroke="#009FE2" stroke-width="0.4252" stroke-linecap="round" stroke-linejoin="round" stroke-miterlimit="10" d="
					M70.546,44.386c0.51-0.891,0.204-2.022-0.677-2.533c-0.891-0.51-2.023-0.213-2.542,0.678"/>
				
					<path fill="none" stroke="#009FE2" stroke-width="0.4252" stroke-linecap="round" stroke-linejoin="round" stroke-miterlimit="10" d="
					M71.706,31.109c-2.978-8.192-12.033-12.414-20.216-9.426c-8.183,2.978-12.404,12.024-9.426,20.207
					c2.979,8.192,12.033,12.414,20.216,9.427c3.488-1.262,6.411-3.721,8.267-6.931"/>
				
					<path fill="none" stroke="#009FE2" stroke-width="0.4252" stroke-linecap="round" stroke-linejoin="round" stroke-miterlimit="10" d="
					M70.593,33.484c0.965-0.353,1.466-1.419,1.113-2.375"/>
				
					<path fill="none" stroke="#009FE2" stroke-width="0.4252" stroke-linecap="round" stroke-linejoin="round" stroke-miterlimit="10" d="
					M51.017,36.657c-0.965,0.353-1.457,1.42-1.104,2.385c0.353,0.955,1.41,1.456,2.375,1.104"/>
			</g>
		</g>
	</g>
	<g id="ARC_17_">
		
			<path fill="#009FE2" stroke="#009FE2" stroke-width="0.4252" stroke-linecap="round" stroke-linejoin="round" stroke-miterlimit="10" d="
			M160.795,68.973V52.139c7.541-0.936,13.202-7.344,13.202-14.943v-9.973c0-1.024-0.83-1.855-1.855-1.855
			c-1.024,0-1.854,0.831-1.854,1.855v9.973c0,6.268-5.081,11.348-11.347,11.348c-6.268,0-11.349-5.08-11.349-11.348v-9.973
			c0-1.024-0.83-1.855-1.854-1.855s-1.855,0.831-1.855,1.855v9.973c0,7.6,5.661,14.008,13.202,14.943v16.834
			c0,1.024,0.831,1.854,1.856,1.854C159.964,70.827,160.795,69.997,160.795,68.973z"/>
	</g>
	<g id="ARC_21_">
		<g id="XMLID_1_">
			<g>
				<path fill="#009FE2" d="M35.003,21.275c0.724,0.724,0.724,1.893,0,2.616L10.334,48.561h23.352c1.03,0,1.855,0.835,1.855,1.855
					s-0.826,1.855-1.855,1.855H5.853c-0.492,0-0.956-0.194-1.308-0.547c-0.724-0.724-0.724-1.893,0-2.616l24.669-24.67H5.853
					c-1.021,0-1.855-0.835-1.855-1.855s0.835-1.855,1.855-1.855h27.833C34.187,20.728,34.651,20.922,35.003,21.275z"/>
			</g>
			<g>
				
					<path fill="none" stroke="#009FE2" stroke-width="0.4252" stroke-linecap="round" stroke-linejoin="round" stroke-miterlimit="10" d="
					M33.686,48.561H10.334l24.669-24.669c0.724-0.724,0.724-1.893,0-2.616c-0.353-0.353-0.816-0.547-1.317-0.547H5.853
					c-1.021,0-1.855,0.835-1.855,1.855s0.835,1.855,1.855,1.855h23.361L4.544,49.108c-0.724,0.724-0.724,1.893,0,2.616
					c0.353,0.353,0.816,0.547,1.308,0.547h27.833c1.03,0,1.855-0.835,1.855-1.855S34.716,48.561,33.686,48.561z"/>
			</g>
		</g>
	</g>
</g>
</svg>
